HIERARCHY
ROOT Hips
{
	OFFSET 0.000000 0.000000 0.000000
	CHANNELS 6 Xposition Yposition Zposition Xrotation Yrotation Zrotation
	JOINT LeftUpLeg_virtual
	{
		OFFSET 0.000000 0.000000 0.000000
		CHANNELS 3 Xrotation Yrotation Zrotation
		JOINT LeftUpLeg
		{
			OFFSET 10.205400 -3.823500 0.155100
			CHANNELS 3 Xrotation Yrotation Zrotation
			JOINT LeftLeg
			{
				OFFSET 0.708757 -12.982077 0.567790
				CHANNELS 3 Xrotation Yrotation Zrotation
				JOINT LeftFoot
				{
					OFFSET -0.708756 -10.717838 -2.184338
					CHANNELS 3 Xrotation Yrotation Zrotation
					JOINT LeftToeBase
					{
						OFFSET 0.108149 -7.191104 7.560241
						CHANNELS 3 Xrotation Yrotation Zrotation
						JOINT LeftToe_End
						{
							OFFSET 0.070230 0.081724 4.490308
							CHANNELS 3 Xrotation Yrotation Zrotation
							End Site
							{
								OFFSET 0 0 0
							}
						}
					}
				}
			}
		}
	}
	JOINT RightUpLeg_virtual
	{
		OFFSET 0.000000 0.000000 0.000000
		CHANNELS 3 Xrotation Yrotation Zrotation
		JOINT RightUpLeg
		{
			OFFSET -10.205400 -3.823500 0.005500
			CHANNELS 3 Xrotation Yrotation Zrotation
			JOINT RightLeg
			{
				OFFSET -0.708756 -12.982134 0.610632
				CHANNELS 3 Xrotation Yrotation Zrotation
				JOINT RightFoot
				{
					OFFSET 0.708754 -10.717769 -1.945823
					CHANNELS 3 Xrotation Yrotation Zrotation
					JOINT RightToeBase
					{
						OFFSET -0.108140 -7.191069 7.372968
						CHANNELS 3 Xrotation Yrotation Zrotation
						JOINT RightToe_End
						{
							OFFSET -0.070227 0.081735 4.479403
							CHANNELS 3 Xrotation Yrotation Zrotation
							End Site
							{
								OFFSET 0 0 0
							}
						}
					}
				}
			}
		}
	}
	JOINT Spine_virtual
	{
		OFFSET 0.000000 0.000000 0.000000
		CHANNELS 3 Xrotation Yrotation Zrotation
		JOINT Spine
		{
			OFFSET 0.000000 6.876099 0.125700
			CHANNELS 3 Xrotation Yrotation Zrotation
			JOINT Spine1
			{
				OFFSET 0.000000 5.730043 0.104720
				CHANNELS 3 Xrotation Yrotation Zrotation
				JOINT Spine1_split
				{
					OFFSET 0.000000 5.730043 0.104720
					CHANNELS 3 Xrotation Yrotation Zrotation
					JOINT Spine2
					{
						OFFSET 0.000000 5.730043 0.104720
						CHANNELS 3 Xrotation Yrotation Zrotation
						JOINT Neck_virtual
						{
							OFFSET 0.000000 0.000000 0.000000
							CHANNELS 3 Xrotation Yrotation Zrotation
							JOINT Neck
							{
								OFFSET 0.000000 10.314075 0.188496
								CHANNELS 3 Xrotation Yrotation Zrotation
								JOINT Head
								{
									OFFSET 0.000000 7.643700 -2.377400
									CHANNELS 3 Xrotation Yrotation Zrotation
									JOINT HeadTop_End
									{
										OFFSET 0.000000 43.788605 -13.619600
										CHANNELS 3 Xrotation Yrotation Zrotation
										End Site
										{
											OFFSET 0 0 0
										}
									}
								}
							}
						}
						JOINT LeftShoulder_virtual
						{
							OFFSET 0.000000 0.000000 0.000000
							CHANNELS 3 Xrotation Yrotation Zrotation
							JOINT LeftShoulder
							{
								OFFSET 2.196100 4.412489 0.087492
								CHANNELS 3 Xrotation Yrotation Zrotation
								JOINT LeftShoulder_split
								{
									OFFSET 2.196100 4.412489 0.087492
									CHANNELS 3 Xrotation Yrotation Zrotation
									JOINT LeftArm
									{
										OFFSET 8.771219 -2.981674 -0.026999
										CHANNELS 3 Xrotation Yrotation Zrotation
										JOINT LeftForeArm
										{
											OFFSET 8.512804 0.000000 -0.000000
											CHANNELS 3 Xrotation Yrotation Zrotation
											JOINT LeftHand
											{
												OFFSET 18.484802 0.000000 -0.000000
												CHANNELS 3 Xrotation Yrotation Zrotation
												End Site
												{
													OFFSET 0 0 0
												}
											}
										}
									}
								}
							}
						}
						JOINT RightShoulder_virtual
						{
							OFFSET 0.000000 0.000000 0.000000
							CHANNELS 3 Xrotation Yrotation Zrotation
							JOINT RightShoulder
							{
								OFFSET -2.196100 4.412496 0.070690
								CHANNELS 3 Xrotation Yrotation Zrotation
								JOINT RightShoulder_split
								{
									OFFSET -2.196100 4.412496 0.070690
									CHANNELS 3 Xrotation Yrotation Zrotation
									JOINT RightArm
									{
										OFFSET -8.771282 -2.981682 -0.094208
										CHANNELS 3 Xrotation Yrotation Zrotation
										JOINT RightForeArm
										{
											OFFSET -8.494598 0.000000 0.000000
											CHANNELS 3 Xrotation Yrotation Zrotation
											JOINT RightHand
											{
												OFFSET -18.483803 0.000000 0.000001
												CHANNELS 3 Xrotation Yrotation Zrotation
												End Site
												{
													OFFSET 0 0 0
												}
											}
										}
									}
								}
							}
						}
					}
				}
			}
		}
	}
}
MOTION
Frames: 11
Frame Time: 0.03333333
0.127985 34.832466 0.069260 0.000000 0.000000 0.000000 -3.700015 -5.210669 -3.545520 -7.533308 14.318941 13.398542 13.816982 2.700335 2.687652 -3.891739 1.670866 -11.038694 -0.233511 0.544867 -1.591659 0.000000 0.000000 0.000000 -3.238042 -3.384964 -3.703555 10.927813 -8.317581 1.791016 2.897760 -6.118452 -3.780232 -7.161047 -2.583049 3.822769 -7.518326 -1.020630 -1.147560 0.000000 0.000000 0.000000 -3.810563 -4.720546 -4.083782 2.948845 0.312127 3.219807 1.732593 -0.028952 1.805701 1.111229 -0.490512 0.018443 0.000000 0.000000 0.000000 1.267249 0.453166 1.654494 6.069607 1.212442 -0.123456 -5.343071 0.820613 -0.993657 0.000000 0.000000 0.000000 1.066156 0.592300 1.445265 1.714551 -15.485815 -12.657106 -2.598323 -0.416137 -1.466720 8.706754 -20.151536 -68.119034 -1.822293 -2.626858 0.079954 0.000000 0.000000 0.000000 1.403020 0.526817 1.658084 1.866614 12.140179 15.588455 0.422840 2.666508 -0.973681 12.395311 28.207682 57.292771 0.541712 11.240730 0.821775 0.000000 0.000000 0.000000 
0.165164 34.833878 0.083279 0.000000 0.000000 0.000000 -3.690343 -5.357993 -3.536827 -7.499874 14.256314 13.399825 13.928855 2.723889 2.638927 -4.019451 1.697635 -11.092326 -0.255887 0.544491 -1.605308 0.000000 0.000000 0.000000 -3.214864 -3.472423 -3.688798 10.957137 -8.402501 1.820913 2.803404 -5.981753 -3.837231 -7.072287 -2.636541 3.812862 -7.466296 -1.083354 -1.086159 0.000000 0.000000 0.000000 -3.805481 -4.895372 -4.118297 2.964500 0.294067 3.233042 1.721289 -0.044696 1.811411 1.083207 -0.464936 0.005657 0.000000 0.000000 0.000000 1.271332 0.455295 1.653361 6.087331 1.242021 -0.090721 -5.381618 0.901979 -1.007913 0.000000 0.000000 0.000000 1.091079 0.576235 1.460575 1.705030 -15.543716 -12.658555 -2.591351 -0.521291 -1.510141 8.625326 -20.155998 -68.179030 -1.830232 -2.693908 0.084177 0.000000 0.000000 0.000000 1.395542 0.516976 1.677451 1.848343 12.166296 15.644374 0.355896 2.665677 -0.957243 12.473493 28.213925 57.193921 0.560576 11.024465 0.855992 0.000000 0.000000 0.000000 
0.201048 34.833630 0.090435 0.000000 0.000000 0.000000 -3.719467 -5.647348 -3.552957 -7.463536 14.201713 13.492024 14.181663 2.791286 2.577628 -4.252487 1.745564 -11.195154 -0.277993 0.546901 -1.631856 0.000000 0.000000 0.000000 -3.250177 -3.632060 -3.697604 10.977615 -8.558756 1.910724 2.748970 -5.682628 -3.905385 -7.145299 -2.743490 3.767637 -7.366118 -1.130747 -1.046522 0.000000 0.000000 0.000000 -3.824677 -5.187461 -4.163239 2.992673 0.282609 3.271724 1.713060 -0.065694 1.812362 1.049595 -0.441622 -0.006497 0.000000 0.000000 0.000000 1.273408 0.449381 1.647012 6.125876 1.294765 -0.062373 -5.441369 1.059172 -1.080097 0.000000 0.000000 0.000000 1.116137 0.556856 1.471232 1.689654 -15.612837 -12.668154 -2.511701 -0.594525 -1.566065 8.568739 -20.050372 -68.253527 -1.814495 -2.752945 0.089383 0.000000 0.000000 0.000000 1.380420 0.503888 1.696987 1.832289 12.260057 15.674657 0.264760 2.678796 -0.946854 12.606391 28.184810 57.053086 0.534135 10.836305 0.920925 0.000000 0.000000 0.000000 
0.229901 34.831017 0.090206 0.000000 0.000000 0.000000 -3.786613 -6.021456 -3.582430 -7.426053 14.159519 13.651287 14.503722 2.908749 2.504266 -4.546592 1.804919 -11.333650 -0.291031 0.551494 -1.660210 0.000000 0.000000 0.000000 -3.331287 -3.854925 -3.718904 10.946789 -8.776324 2.045510 2.797861 -5.226513 -3.958516 -7.287148 -2.886832 3.746762 -7.275839 -1.163132 -1.033070 0.000000 0.000000 0.000000 -3.868000 -5.562744 -4.211667 3.030838 0.278656 3.329667 1.710802 -0.085319 1.809611 1.033998 -0.439554 0.008999 0.000000 0.000000 0.000000 1.269783 0.439952 1.636912 6.173510 1.360712 -0.038281 -5.515531 1.259693 -1.186837 0.000000 0.000000 0.000000 1.140878 0.537230 1.477745 1.666670 -15.687657 -12.684089 -2.407450 -0.584883 -1.625992 8.541450 -19.819869 -68.314213 -1.787014 -2.776398 0.094921 0.000000 0.000000 0.000000 1.365434 0.488987 1.713452 1.818981 12.409450 15.664964 0.178142 2.692547 -0.938173 12.786411 28.174981 56.887232 0.483172 10.703626 0.993673 0.000000 0.000000 0.000000 
0.251356 34.822876 0.078636 0.000000 0.000000 0.000000 -3.880583 -6.432856 -3.618514 -7.373581 14.131069 13.849560 14.835290 3.081706 2.422881 -4.848762 1.866397 -11.491050 -0.295047 0.555460 -1.680194 0.000000 0.000000 0.000000 -3.438557 -4.124251 -3.743578 10.861384 -9.028376 2.221743 2.948123 -4.624726 -4.008188 -7.459854 -3.067166 3.765742 -7.296119 -1.187119 -1.051607 0.000000 0.000000 0.000000 -3.937858 -5.996159 -4.259102 3.076384 0.283384 3.397519 1.716598 -0.097231 1.805508 1.039792 -0.461384 0.034915 0.000000 0.000000 0.000000 1.261578 0.433419 1.623712 6.216232 1.431401 -0.015222 -5.594033 1.463063 -1.293708 0.000000 0.000000 0.000000 1.167921 0.521927 1.481149 1.639219 -15.763308 -12.691613 -2.291069 -0.491412 -1.689717 8.512982 -19.501653 -68.345755 -1.761589 -2.766268 0.096816 0.000000 0.000000 0.000000 1.358548 0.477818 1.725154 1.808973 12.597473 15.598772 0.084166 2.690892 -0.923616 13.017115 28.248464 56.696529 0.435087 10.647628 1.050712 0.000000 0.000000 0.000000 
0.267490 34.809181 0.062107 0.000000 0.000000 0.000000 -3.985550 -6.839019 -3.654543 -7.295112 14.106554 14.055862 15.140516 3.304632 2.341463 -5.109449 1.919847 -11.655097 -0.303999 0.558164 -1.684984 0.000000 0.000000 0.000000 -3.545736 -4.413734 -3.764409 10.736694 -9.282186 2.433910 3.190632 -3.925442 -4.076542 -7.685420 -3.299379 3.761662 -7.401041 -1.211394 -1.088272 0.000000 0.000000 0.000000 -4.032860 -6.453585 -4.302557 3.124300 0.295645 3.466265 1.731199 -0.095531 1.804076 1.045654 -0.517221 0.069984 0.000000 0.000000 0.000000 1.252581 0.435651 1.610601 6.252693 1.498249 0.003007 -5.661298 1.616430 -1.375869 0.000000 0.000000 0.000000 1.200845 0.513829 1.483157 1.611525 -15.831303 -12.679520 -2.191343 -0.341009 -1.784563 8.470118 -19.140591 -68.345400 -1.745844 -2.724884 0.094466 0.000000 0.000000 0.000000 1.361002 0.474279 1.734015 1.800827 12.806299 15.476128 0.000873 2.680137 -0.898725 13.276354 28.425576 56.510711 0.410943 10.676877 1.071148 0.000000 0.000000 0.000000 
0.280418 34.795074 0.048504 0.000000 0.000000 0.000000 -4.101717 -7.249866 -3.683688 -7.179582 14.079596 14.259647 15.412655 3.567945 2.276125 -5.294431 1.956738 -11.822203 -0.322065 0.559647 -1.675200 0.000000 0.000000 0.000000 -3.648296 -4.750144 -3.776179 10.559789 -9.514777 2.666357 3.505814 -3.188179 -4.164735 -7.946411 -3.594696 3.658344 -7.476239 -1.239931 -1.119185 0.000000 0.000000 0.000000 -4.155402 -6.917911 -4.341829 3.170484 0.310859 3.524569 1.751377 -0.081972 1.808071 1.042646 -0.604123 0.088087 0.000000 0.000000 0.000000 1.244802 0.447757 1.599383 6.290606 1.556204 0.018486 -5.713280 1.685373 -1.427287 0.000000 0.000000 0.000000 1.241465 0.512164 1.485206 1.592208 -15.888458 -12.631770 -2.129217 -0.146167 -1.886572 8.407221 -18.766711 -68.331746 -1.737359 -2.650664 0.087889 0.000000 0.000000 0.000000 1.377959 0.480537 1.746170 1.800770 13.020262 15.316250 -0.088541 2.664045 -0.863198 13.505396 28.650837 56.348231 0.410023 10.829770 1.049280 0.000000 0.000000 0.000000 
0.292262 34.784187 0.039183 0.000000 0.000000 0.000000 -4.214778 -7.694052 -3.704250 -7.030216 14.041869 14.457788 15.653680 3.870246 2.238687 -5.414819 1.983133 -11.973019 -0.337253 0.557104 -1.654693 0.000000 0.000000 0.000000 -3.753309 -5.126765 -3.780219 10.313755 -9.718522 2.895058 3.878336 -2.434302 -4.266752 -8.177854 -3.947016 3.456642 -7.445472 -1.275275 -1.121753 0.000000 0.000000 0.000000 -4.294309 -7.377689 -4.377060 3.208432 0.324955 3.565400 1.768350 -0.058447 1.820643 1.054305 -0.681489 0.079904 0.000000 0.000000 0.000000 1.237585 0.466216 1.595927 6.337582 1.601152 0.025695 -5.746901 1.655357 -1.462550 0.000000 0.000000 0.000000 1.286277 0.515055 1.488754 1.587004 -15.930732 -12.540010 -2.085235 0.036821 -1.953202 8.326472 -18.410369 -68.337764 -1.722498 -2.560575 0.076278 0.000000 0.000000 0.000000 1.412075 0.497990 1.766203 1.807251 13.228698 15.141131 -0.176194 2.630051 -0.797080 13.555675 28.819505 56.257608 0.420514 11.161624 0.990992 0.000000 0.000000 0.000000 
0.300956 34.775291 0.034636 0.000000 0.000000 0.000000 -4.318930 -8.166313 -3.716889 -6.849086 13.980311 14.642370 15.856603 4.203374 2.231916 -5.523329 2.014673 -12.089152 -0.339751 0.548382 -1.629802 0.000000 0.000000 0.000000 -3.857898 -5.532029 -3.775645 10.005364 -9.877436 3.106891 4.294058 -1.660853 -4.361512 -8.309892 -4.319516 3.220789 -7.323635 -1.315643 -1.092529 0.000000 0.000000 0.000000 -4.446346 -7.829256 -4.412593 3.232610 0.335562 3.589811 1.772956 -0.031400 1.842717 1.077066 -0.717890 0.065178 0.000000 0.000000 0.000000 1.229510 0.488461 1.603846 6.406573 1.634302 0.021096 -5.738970 1.527162 -1.517497 0.000000 0.000000 0.000000 1.324032 0.520067 1.495549 1.597474 -15.950030 -12.411030 -2.074681 0.168570 -1.986801 8.247766 -18.071094 -68.380371 -1.690747 -2.467841 0.061222 0.000000 0.000000 0.000000 1.450434 0.523401 1.796930 1.814935 13.433215 14.978596 -0.251494 2.569017 -0.702814 13.305531 28.797946 56.267235 0.415570 11.728867 0.911263 0.000000 0.000000 0.000000 
0.305677 34.766834 0.030497 0.000000 0.000000 0.000000 -4.426851 -8.653040 -3.729355 -6.628092 13.899091 14.811293 16.017120 4.544657 2.247784 -5.656180 2.061870 -12.187176 -0.332206 0.534186 -1.606501 0.000000 0.000000 0.000000 -3.960960 -5.959513 -3.768296 9.679315 -9.973378 3.299850 4.694070 -0.859361 -4.453256 -8.329681 -4.683447 3.000599 -7.189850 -1.351345 -1.046719 0.000000 0.000000 0.000000 -4.605817 -8.290099 -4.448805 3.237307 0.343882 3.604639 1.758870 -0.008973 1.873048 1.092208 -0.723499 0.054135 0.000000 0.000000 0.000000 1.211518 0.510976 1.622796 6.520243 1.651045 0.008602 -5.644157 1.316308 -1.638479 0.000000 0.000000 0.000000 1.342631 0.524740 1.506913 1.625509 -15.943497 -12.246128 -2.087863 0.223991 -2.007741 8.188292 -17.732279 -68.458993 -1.638071 -2.380977 0.041933 0.000000 0.000000 0.000000 1.475484 0.551508 1.837886 1.818598 13.633261 14.843695 -0.332352 2.442307 -0.573735 12.678353 28.530149 56.342340 0.376228 12.527729 0.834447 0.000000 0.000000 0.000000 
0.308317 34.757236 0.029625 0.000000 0.000000 0.000000 -4.543696 -9.138594 -3.748524 -6.367729 13.818426 14.960635 16.132294 4.869582 2.272981 -5.820193 2.133458 -12.298732 -0.329757 0.514847 -1.587069 0.000000 0.000000 0.000000 -4.062013 -6.395586 -3.766241 9.385850 -10.006713 3.484466 5.038765 -0.060029 -4.550145 -8.262577 -5.031789 2.795500 -7.082761 -1.375089 -0.994998 0.000000 0.000000 0.000000 -4.772847 -8.760488 -4.484769 3.228201 0.351799 3.619999 1.723747 0.004882 1.909639 1.094541 -0.710972 0.048937 0.000000 0.000000 0.000000 1.174531 0.530653 1.650705 6.691950 1.648232 -0.014763 -5.394329 1.020058 -1.868386 0.000000 0.000000 0.000000 1.335199 0.528717 1.524163 1.666842 -15.913306 -12.058489 -2.120165 0.227936 -2.044877 8.166505 -17.372016 -68.551467 -1.573581 -2.301626 0.010762 0.000000 0.000000 0.000000 1.475052 0.577500 1.883541 1.814985 13.840852 14.742104 -0.419226 2.277997 -0.456102 11.676611 28.032674 56.427816 0.295562 13.513420 0.770087 0.000000 0.000000 0.000000 
